C:\Users\r0593348\3dpredictsim\Results\Batchsim_tmt_linear\Pog_s1_tmt_aCst_d02_k250_ig24_act_GRF.mot
nRows=27
nColumns=19

name C:\Users\r0593348\3dpredictsim\Results\Batchsim_tmt_linear\Pog_s1_tmt_aCst_d02_k250_ig24_act_GRF.mot
datacolumns 19
datarows 27
range 0.6292874820 0.9565169726
endheader
time 	ground_force_vx	ground_force_vy	ground_force_vz	ground_force_px	ground_force_py	ground_force_pz	1_ground_force_vx	1_ground_force_vy	1_ground_force_vz	1_ground_force_px	1_ground_force_py	1_ground_force_pz	ground_torque_x	ground_torque_y	ground_torque_z	1_ground_torque_x	1_ground_torque_y	1_ground_torque_z
        0.6292874820	       72.2729180927	      369.2903621707	        2.3721528104	        0.4175969957	        0.0000000000	        0.0271353037	      -25.0958232589	       21.1167973708	       -8.1623249425	        0.9741431120	        0.0000000000	       -0.0528154213	        0.0000000000	        0.0000000000	        0.0000000000	        0.0000000000	        0.0000000000	        0.0000000000	
        0.6418732316	       47.4474293511	      270.6024174942	       13.3540028068	        0.4292101964	        0.0000000000	        0.0228431180	      -84.5200689612	       97.5336994103	      -49.4713623718	        0.9808011973	        0.0000000000	       -0.0508282514	        0.0000000000	        0.0000000000	        0.0000000000	        0.0000000000	        0.0000000000	        0.0000000000	
        0.6544589812	       32.9995043953	      224.9381948589	       18.5972505739	        0.4359862062	        0.0000000000	        0.0198859539	      -43.6937727750	      285.7469058961	      -22.9185226224	        0.9854599958	        0.0000000000	       -0.0485038995	        0.0000000000	        0.0000000000	        0.0000000000	        0.0000000000	        0.0000000000	        0.0000000000	
        0.6670447309	       30.5457462694	      189.9574287060	       18.2547383781	        0.4360774730	        0.0000000000	        0.0199152244	      -50.0893237393	      510.5122097072	        4.0499774634	        0.9887781193	        0.0000000000	       -0.0482177220	        0.0000000000	        0.0000000000	        0.0000000000	        0.0000000000	        0.0000000000	        0.0000000000	
        0.6796304805	       21.5193249998	      141.3264292583	       19.1999358985	        0.4361241554	        0.0000000000	        0.0201044486	      -97.6137916038	      759.7836047324	       18.1771334492	        0.9991349192	        0.0000000000	       -0.0503004279	        0.0000000000	        0.0000000000	        0.0000000000	        0.0000000000	        0.0000000000	        0.0000000000	
        0.6922162302	        5.4661924276	       71.9315603527	       19.2423692853	        0.4357115414	        0.0000000000	        0.0209760378	     -134.0922122975	      911.1823369013	       19.2180334925	        1.0074233387	        0.0000000000	       -0.0520751938	        0.0000000000	        0.0000000000	        0.0000000000	        0.0000000000	        0.0000000000	        0.0000000000	
        0.7048019798	      -12.3854191304	       15.2694246038	        5.9499093508	        0.4297592301	        0.0000000000	        0.0208970560	     -136.0719196024	      930.6426062572	       20.5546844072	        1.0127922234	        0.0000000000	       -0.0530102755	        0.0000000000	        0.0000000000	        0.0000000000	        0.0000000000	        0.0000000000	        0.0000000000	
        0.7173877294	      -15.4849328640	       12.5543550143	       -0.1359681505	        0.4369455400	        0.0000000000	        0.0175477624	     -122.5352268706	      884.2127468202	       19.6031834400	        1.0169858955	        0.0000000000	       -0.0534977695	        0.0000000000	        0.0000000000	        0.0000000000	        0.0000000000	        0.0000000000	        0.0000000000	
        0.7299734791	      -21.3640521737	       14.9545722894	       -0.6455220178	        0.4527396166	        0.0000000000	        0.0182001523	     -107.2286359348	      825.6098097175	       19.1391466432	        1.0214997005	        0.0000000000	       -0.0535780588	        0.0000000000	        0.0000000000	        0.0000000000	        0.0000000000	        0.0000000000	        0.0000000000	
        0.7425592287	      -22.1150436484	       13.7248154912	       -1.2068645603	        0.4732703460	        0.0000000000	        0.0192445064	      -94.9833944925	      776.1115514696	       19.1056843035	        1.0269597223	        0.0000000000	       -0.0533358919	        0.0000000000	        0.0000000000	        0.0000000000	        0.0000000000	        0.0000000000	        0.0000000000	
        0.7551449784	      -19.8865302602	       11.2021491070	       -1.4693163821	        0.4977556201	        0.0000000000	        0.0208845713	      -86.8600249115	      745.5250362246	       19.6204969532	        1.0339022389	        0.0000000000	       -0.0527249629	        0.0000000000	        0.0000000000	        0.0000000000	        0.0000000000	        0.0000000000	        0.0000000000	
        0.7677307280	      -15.2477786226	        7.9728345273	       -1.3269125794	        0.0000000000	        0.0000000000	        0.0000000000	      -79.0960108155	      718.9238449474	       19.6473316570	        1.0407471132	        0.0000000000	       -0.0520111478	        0.0000000000	        0.0000000000	        0.0000000000	        0.0000000000	        0.0000000000	        0.0000000000	
        0.7803164776	      -10.5515670721	        5.2852023418	       -0.9389616709	        0.0000000000	        0.0000000000	        0.0000000000	      -70.3515919342	      692.3980267624	       19.8762412051	        1.0472603819	        0.0000000000	       -0.0514098258	        0.0000000000	        0.0000000000	        0.0000000000	        0.0000000000	        0.0000000000	        0.0000000000	
        0.7929022273	       -7.3370166385	        3.5619827136	       -0.6501515955	        0.0000000000	        0.0000000000	        0.0000000000	      -61.7813069957	      669.3672092847	       20.2569856831	        1.0540000553	        0.0000000000	       -0.0508527125	        0.0000000000	        0.0000000000	        0.0000000000	        0.0000000000	        0.0000000000	        0.0000000000	
        0.8054879769	       -5.3480721203	        2.5386255980	       -0.4665570261	        0.0000000000	        0.0000000000	        0.0000000000	      -54.4796982719	      650.7931658672	       20.7095052931	        1.0612308704	        0.0000000000	       -0.0502512762	        0.0000000000	        0.0000000000	        0.0000000000	        0.0000000000	        0.0000000000	        0.0000000000	
        0.8180737266	       -3.9060312530	        1.8225759382	       -0.3354220039	        0.0000000000	        0.0000000000	        0.0000000000	      -48.6564170397	      635.7647462868	       20.9436658176	        1.0689144407	        0.0000000000	       -0.0495611178	        0.0000000000	        0.0000000000	        0.0000000000	        0.0000000000	        0.0000000000	        0.0000000000	
        0.8306594762	       -2.7463272824	        1.2630209455	       -0.2311011266	        0.0000000000	        0.0000000000	        0.0000000000	      -43.8347211526	      624.0026259555	       20.6948884032	        1.0769551807	        0.0000000000	       -0.0487760589	        0.0000000000	        0.0000000000	        0.0000000000	        0.0000000000	        0.0000000000	        0.0000000000	
        0.8432452258	       -1.8966582464	        0.8607012537	       -0.1552189376	        0.0000000000	        0.0000000000	        0.0000000000	      -39.8397647539	      614.6962721379	       19.7962525265	        1.0851010274	        0.0000000000	       -0.0479238553	        0.0000000000	        0.0000000000	        0.0000000000	        0.0000000000	        0.0000000000	        0.0000000000	
        0.8558309755	       -1.3441389151	        0.6012586488	       -0.1055770803	        0.0000000000	        0.0000000000	        0.0000000000	      -36.1177882213	      607.2656211145	       18.2422283135	        1.0930240909	        0.0000000000	       -0.0470559906	        0.0000000000	        0.0000000000	        0.0000000000	        0.0000000000	        0.0000000000	        0.0000000000	
        0.8684167251	       -1.0200173654	        0.4489509746	       -0.0760449996	        0.0000000000	        0.0000000000	        0.0000000000	      -32.2943505570	      600.9159868125	       16.8862295104	        1.1006290962	        0.0000000000	       -0.0461870036	        0.0000000000	        0.0000000000	        0.0000000000	        0.0000000000	        0.0000000000	        0.0000000000	
        0.8810024748	       -0.8411557853	        0.3638728589	       -0.0591807739	        0.0000000000	        0.0000000000	        0.0000000000	      -28.4555820254	      594.5288389932	       16.1817383416	        1.1079420398	        0.0000000000	       -0.0453140589	        0.0000000000	        0.0000000000	        0.0000000000	        0.0000000000	        0.0000000000	        0.0000000000	
        0.8935882244	       -0.7527913823	        0.3200643644	       -0.0502157532	        0.0000000000	        0.0000000000	        0.0000000000	      -24.8575988853	      587.9513994491	       15.9243715628	        1.1149994588	        0.0000000000	       -0.0444383142	        0.0000000000	        0.0000000000	        0.0000000000	        0.0000000000	        0.0000000000	        0.0000000000	
        0.9061739740	       -0.7234154844	        0.3025306512	       -0.0460733964	        0.0000000000	        0.0000000000	        0.0000000000	      -21.5130740848	      581.2432614317	       15.9414288760	        1.1217938298	        0.0000000000	       -0.0435634520	        0.0000000000	        0.0000000000	        0.0000000000	        0.0000000000	        0.0000000000	        0.0000000000	
        0.9187597237	       -0.7380838978	        0.3039579203	       -0.0452570944	        0.0000000000	        0.0000000000	        0.0000000000	      -18.0339878200	      574.6780439733	       16.0316237105	        1.1283520585	        0.0000000000	       -0.0426854994	        0.0000000000	        0.0000000000	        0.0000000000	        0.0000000000	        0.0000000000	        0.0000000000	
        0.9313454733	       -0.7903238985	        0.3208945983	       -0.0467112855	        0.0000000000	        0.0000000000	        0.0000000000	      -14.3653753534	      567.9869961239	       15.8539078997	        1.1346372899	        0.0000000000	       -0.0418108475	        0.0000000000	        0.0000000000	        0.0000000000	        0.0000000000	        0.0000000000	        0.0000000000	
        0.9439312230	       -0.8929604184	        0.3576677371	       -0.0504965239	        0.0000000000	        0.0000000000	        0.0000000000	      -10.3788108961	      560.8503910977	       15.4640673685	        1.1405758679	        0.0000000000	       -0.0409497310	        0.0000000000	        0.0000000000	        0.0000000000	        0.0000000000	        0.0000000000	        0.0000000000	
        0.9565169726	       -1.0749915601	        0.4248532190	       -0.0571469765	        0.0000000000	        0.0000000000	        0.0000000000	       -6.3389416575	      555.1043632754	       14.6105046569	        1.1460913129	        0.0000000000	       -0.0401099057	        0.0000000000	        0.0000000000	        0.0000000000	        0.0000000000	        0.0000000000	        0.0000000000	
